<?xml version="1.0" encoding="UTF-8"?>
<svg xmlns="http://www.w3.org/2000/svg" xmlns:xlink="http://www.w3.org/1999/xlink" width="px" height="px" viewBox="0 0 400 400" version="1.1">
<g id="surface1">
<path style=" stroke:none;fill-rule:nonzero;fill:rgb(100%,100%,100%);fill-opacity:1;" d="M 349.925781 81.503906 L 223.933594 6.699219 C 208.957031 -2.234375 190.292969 -2.234375 175.316406 6.699219 L 49.296875 81.503906 C 34.136719 90.648438 24.910156 107.09375 25 124.796875 L 25 274.378906 C 24.917969 292.074219 34.144531 308.507812 49.296875 317.648438 L 175.292969 392.425781 C 190.269531 401.351562 208.929688 401.351562 223.90625 392.425781 L 349.902344 317.648438 C 365.070312 308.507812 374.308594 292.0625 374.222656 274.355469 L 374.222656 124.796875 C 374.316406 107.09375 365.085938 90.648438 349.925781 81.503906 Z M 349.925781 81.503906 "/>
<path style=" stroke:none;fill-rule:nonzero;fill:rgb(18.431373%,22.745098%,24.313725%);fill-opacity:1;" d="M 350.644531 81.683594 L 224.371094 6.714844 C 209.363281 -2.238281 190.65625 -2.238281 175.648438 6.714844 L 49.351562 81.683594 C 34.160156 90.847656 24.910156 107.328125 25 125.070312 L 25 274.984375 C 24.917969 292.71875 34.167969 309.1875 49.351562 318.347656 L 175.621094 393.289062 C 190.632812 402.238281 209.335938 402.238281 224.347656 393.289062 L 350.617188 318.347656 C 365.820312 309.1875 375.078125 292.707031 374.992188 274.957031 L 374.992188 125.070312 C 375.085938 107.328125 365.835938 90.847656 350.644531 81.683594 Z M 180.046875 385.628906 L 53.773438 310.6875 C 41.296875 303.125 33.695312 289.574219 33.75 274.984375 L 33.75 125.070312 C 33.691406 110.480469 41.292969 96.925781 53.773438 89.367188 L 180.046875 14.398438 C 192.335938 7.066406 207.65625 7.066406 219.945312 14.398438 L 346.117188 89.367188 C 356.519531 95.667969 363.613281 106.234375 365.511719 118.242188 C 361.3125 109.320312 351.882812 106.867188 340.882812 113.1875 L 221.515625 187.121094 C 206.621094 195.792969 195.648438 205.578125 195.621094 223.53125 L 195.621094 370.738281 C 195.621094 381.484375 199.945312 388.4375 206.621094 390.484375 C 204.433594 390.886719 202.21875 391.097656 199.996094 391.117188 C 192.976562 391.113281 186.085938 389.214844 180.046875 385.628906 Z M 180.046875 385.628906 "/>
<path style=" stroke:none;fill-rule:nonzero;fill:rgb(22.745098%,69.411765%,29.019608%);fill-opacity:1;" d="M 317.199219 289.15625 L 285.8125 307.925781 C 284.972656 308.265625 284.410156 309.066406 284.375 309.96875 L 284.375 318.21875 C 284.375 319.230469 285.058594 319.632812 285.890625 319.152344 L 317.753906 299.777344 C 318.535156 299.191406 318.90625 298.210938 318.710938 297.253906 L 318.710938 290.015625 C 318.6875 289.082031 317.957031 288.675781 317.199219 289.15625 Z M 317.199219 289.15625 "/>
<path style=" stroke:none;fill-rule:nonzero;fill:rgb(100%,100%,100%);fill-opacity:1;" d="M 250.410156 220.050781 C 251.421875 219.546875 252.253906 220.050781 252.277344 221.488281 L 252.378906 232.4375 C 256.152344 230.722656 260.363281 230.210938 264.4375 230.972656 C 265.21875 231.175781 265.546875 232.234375 265.246094 233.496094 L 262.847656 243.109375 C 262.667969 243.835938 262.292969 244.496094 261.765625 245.027344 C 261.578125 245.210938 261.367188 245.363281 261.132812 245.480469 C 260.847656 245.636719 260.519531 245.6875 260.199219 245.632812 C 256.226562 244.753906 252.066406 245.417969 248.570312 247.5 C 243.453125 249.804688 240.109375 254.832031 239.964844 260.441406 C 239.964844 265.488281 242.488281 266.875 251.292969 267.027344 C 262.925781 267.226562 267.96875 272.300781 268.097656 284.03125 C 267.820312 296.277344 262.171875 307.78125 252.65625 315.492188 L 252.859375 326.238281 C 252.839844 327.574219 252.148438 328.808594 251.015625 329.519531 L 244.660156 333.175781 C 243.648438 333.683594 242.816406 333.175781 242.792969 331.765625 L 242.792969 321.195312 C 237.34375 323.464844 231.816406 323.992188 228.285156 322.582031 C 227.628906 322.328125 227.328125 321.34375 227.605469 320.210938 L 229.898438 310.496094 C 230.074219 309.726562 230.46875 309.027344 231.035156 308.476562 C 231.214844 308.304688 231.417969 308.160156 231.640625 308.050781 C 231.96875 307.902344 232.347656 307.902344 232.675781 308.050781 C 237.171875 309.269531 241.96875 308.660156 246.019531 306.359375 C 251.867188 303.539062 255.667969 297.707031 255.886719 291.222656 C 255.886719 285.773438 252.882812 283.5 245.792969 283.449219 C 236.636719 283.449219 228.132812 281.683594 227.957031 268.3125 C 228.167969 256.632812 233.589844 245.65625 242.742188 238.390625 L 242.285156 227.390625 C 242.28125 226.039062 242.980469 224.777344 244.128906 224.0625 Z M 250.410156 220.050781 "/>
</g>
</svg>
