<?xml version="1.0" encoding="UTF-8"?>
<svg xmlns="http://www.w3.org/2000/svg" xmlns:xlink="http://www.w3.org/1999/xlink" width="px" height="px" viewBox="0 0 24 24" version="1.1">
<g id="surface1">
<path style=" stroke:none;fill-rule:evenodd;fill:rgb(0%,32.941176%,61.568627%);fill-opacity:1;" d="M 11.453125 1.644531 C 11.789062 1.453125 12.210938 1.453125 12.546875 1.644531 C 14.226562 2.585938 19.273438 5.417969 20.953125 6.359375 C 21.289062 6.550781 21.5 6.902344 21.5 7.28125 C 21.5 9.164062 21.5 14.832031 21.5 16.714844 C 21.5 17.097656 21.289062 17.449219 20.953125 17.640625 C 19.273438 18.582031 14.226562 21.414062 12.546875 22.355469 C 12.207031 22.546875 11.789062 22.546875 11.453125 22.355469 C 9.773438 21.414062 4.726562 18.582031 3.046875 17.640625 C 2.710938 17.449219 2.5 17.097656 2.5 16.71875 C 2.5 14.835938 2.5 9.167969 2.5 7.285156 C 2.5 6.902344 2.710938 6.550781 3.046875 6.359375 C 4.726562 5.417969 9.773438 2.585938 11.453125 1.644531 Z M 11.453125 1.644531 "/>
<path style=" stroke:none;fill-rule:evenodd;fill:rgb(0%,52.54902%,83.137255%);fill-opacity:1;" d="M 2.652344 17.203125 C 2.519531 17.023438 2.5 16.855469 2.5 16.628906 C 2.5 14.753906 2.5 9.121094 2.5 7.246094 C 2.5 6.867188 2.707031 6.519531 3.046875 6.328125 C 4.71875 5.394531 9.75 2.578125 11.421875 1.640625 C 11.757812 1.449219 12.21875 1.453125 12.554688 1.644531 C 14.226562 2.578125 19.242188 5.375 20.914062 6.308594 C 21.046875 6.386719 21.152344 6.476562 21.242188 6.597656 Z M 2.652344 17.203125 "/>
<path style=" stroke:none;fill-rule:evenodd;fill:rgb(100%,100%,100%);fill-opacity:1;" d="M 12 5 C 15.863281 5 19 8.136719 19 12 C 19 15.863281 15.863281 19 12 19 C 8.136719 19 5 15.863281 5 12 C 5 8.136719 8.136719 5 12 5 Z M 12 8.5 C 13.929688 8.5 15.5 10.066406 15.5 12 C 15.5 13.929688 13.929688 15.5 12 15.5 C 10.070312 15.5 8.5 13.929688 8.5 12 C 8.5 10.066406 10.066406 8.5 12 8.5 Z M 12 8.5 "/>
<path style=" stroke:none;fill-rule:evenodd;fill:rgb(0%,45.882353%,75.294118%);fill-opacity:1;" d="M 21.242188 6.601562 C 21.5 6.84375 21.496094 7.207031 21.496094 7.496094 C 21.496094 9.390625 21.480469 14.789062 21.5 16.6875 C 21.503906 16.882812 21.4375 17.09375 21.339844 17.25 L 11.796875 12 Z M 21.242188 6.601562 "/>
<path style=" stroke:none;fill-rule:evenodd;fill:rgb(100%,100%,100%);fill-opacity:1;" d="M 15.5 10.5 L 16.5 10.5 L 16.5 13.5 L 15.5 13.5 Z M 19 10.5 L 20 10.5 L 20 13.5 L 19 13.5 Z M 19 10.5 "/>
<path style=" stroke:none;fill-rule:evenodd;fill:rgb(100%,100%,100%);fill-opacity:1;" d="M 14.5 11.5 L 17.5 11.5 L 17.5 12.5 L 14.5 12.5 Z M 18 11.5 L 21 11.5 L 21 12.5 L 18 12.5 Z M 18 11.5 "/>
</g>
</svg>
