<?xml version="1.0" encoding="UTF-8"?>
<svg xmlns="http://www.w3.org/2000/svg" xmlns:xlink="http://www.w3.org/1999/xlink" width="px" height="px" viewBox="0 0 1057 1250" version="1.1">
<g id="surface1">
<path style=" stroke:none;fill-rule:nonzero;fill:rgb(0%,26.666667%,50.980392%);fill-opacity:1;" d="M 1042.0625 387 C 1042.457031 369.085938 1038.140625 351.382812 1029.539062 335.660156 C 1020.628906 320.460938 1007.78125 307.945312 992.351562 299.433594 C 855.566406 220.492188 718.734375 141.664062 581.855469 62.945312 C 545 41.644531 509.273438 42.398438 472.652344 64.03125 C 418.214844 96.007812 145.609375 252.296875 64.378906 299.386719 C 30.921875 318.75 14.667969 348.410156 14.667969 386.953125 L 14.667969 863.046875 C 14.324219 880.582031 18.472656 897.914062 26.71875 913.394531 C 35.632812 929.058594 48.71875 941.941406 64.519531 950.613281 C 145.75 997.847656 418.40625 1153.945312 472.84375 1186.0625 C 509.464844 1207.695312 545.1875 1208.453125 582.09375 1187.148438 C 718.847656 1108.179688 855.679688 1029.316406 992.589844 950.566406 C 1008.390625 941.894531 1021.476562 929.011719 1030.390625 913.347656 C 1038.636719 897.867188 1042.785156 880.535156 1042.441406 863 L 1042.441406 387 Z M 1042.0625 387 "/>
<path style=" stroke:none;fill-rule:nonzero;fill:rgb(0%,34.901961%,61.176471%);fill-opacity:1;" d="M 1042.15625 863.046875 C 1042.511719 880.582031 1038.363281 897.917969 1030.109375 913.394531 C 1028.082031 917.082031 1025.789062 920.617188 1023.257812 923.976562 L 528.367188 625 L 992.351562 299.433594 C 1007.765625 307.949219 1020.597656 320.464844 1029.492188 335.660156 C 1038.128906 351.371094 1042.464844 369.078125 1042.0625 387 C 1042.15625 545.699219 1042.15625 863.046875 1042.15625 863.046875 Z M 1042.15625 863.046875 "/>
<path style=" stroke:none;fill-rule:nonzero;fill:rgb(39.607843%,60.392157%,82.352941%);fill-opacity:1;" d="M 1029.492188 335.660156 L 26.578125 913.394531 C 18.367188 897.921875 14.25 880.605469 14.621094 863.09375 L 14.621094 386.953125 C 14.621094 348.410156 30.921875 318.75 64.332031 299.386719 C 145.609375 252.296875 418.214844 96.007812 472.699219 63.9375 C 509.226562 42.304688 545 41.546875 581.855469 62.851562 C 718.609375 141.820312 855.441406 220.683594 992.351562 299.433594 C 1007.765625 307.949219 1020.597656 320.464844 1029.492188 335.660156 Z M 1029.492188 335.660156 "/>
<path style=" stroke:none;fill-rule:nonzero;fill:rgb(100%,100%,100%);fill-opacity:1;" d="M 548.210938 817.328125 C 479.429688 817.421875 416.050781 780.082031 382.824219 719.886719 C 381.152344 716.929688 379.578125 713.90625 378.097656 710.820312 C 336.4375 624.820312 365.6875 521.265625 446.199219 469.742188 C 526.707031 418.21875 633.042969 435 693.753906 508.808594 C 696.257812 511.832031 698.480469 514.996094 700.984375 518.257812 C 702.117188 519.816406 703.253906 521.375 704.292969 522.980469 L 870.011719 427.570312 C 865.980469 421.085938 861.757812 414.789062 857.347656 408.679688 C 855.03125 405.421875 852.621094 402.304688 850.355469 399.234375 C 730.953125 244.191406 512.804688 206.074219 347.863281 311.429688 C 182.917969 416.785156 125.886719 630.667969 216.488281 804.101562 C 218.097656 807.125 219.75 810.101562 221.214844 813.074219 C 286.507812 928.21875 407.371094 1000.765625 539.742188 1004.265625 C 672.109375 1007.765625 796.640625 941.707031 867.933594 830.175781 L 705.898438 732.261719 C 671.046875 785.378906 611.761719 817.359375 548.210938 817.328125 Z M 548.210938 817.328125 "/>
</g>
</svg>
