<?xml version="1.0" encoding="UTF-8"?>
<svg xmlns="http://www.w3.org/2000/svg" xmlns:xlink="http://www.w3.org/1999/xlink" width="px" height="px" viewBox="0 0 24 24" version="1.1">
<g id="surface1">
<path style=" stroke:none;fill-rule:nonzero;fill:rgb(100%,80%,50.196078%);fill-opacity:1;" d="M 17.773438 21.214844 L 16.183594 19.625 L 15.121094 20.683594 L 16.714844 22.277344 C 17.007812 22.570312 17.480469 22.570312 17.773438 22.277344 C 18.066406 21.984375 18.066406 21.507812 17.773438 21.214844 Z M 19.273438 12.214844 L 17.683594 10.625 L 16.621094 11.683594 L 18.214844 13.277344 C 18.507812 13.570312 18.980469 13.570312 19.273438 13.277344 C 19.566406 12.984375 19.566406 12.507812 19.273438 12.214844 Z M 6.339844 21.214844 L 7.933594 19.625 L 8.992188 20.683594 L 7.402344 22.277344 C 7.109375 22.570312 6.632812 22.570312 6.339844 22.277344 C 6.050781 21.984375 6.046875 21.507812 6.339844 21.214844 Z M 4.714844 12.214844 L 6.308594 10.625 L 7.367188 11.683594 L 5.777344 13.277344 C 5.484375 13.570312 5.007812 13.570312 4.714844 13.277344 C 4.425781 12.984375 4.421875 12.507812 4.714844 12.214844 Z M 4.714844 12.214844 "/>
<path style=" stroke:none;fill-rule:nonzero;fill:rgb(30.196078%,81.568627%,88.235294%);fill-opacity:1;" d="M 19 4 C 19 3.035156 18.425781 2.5 17.382812 2.5 C 16.34375 2.5 15.5 3.785156 15.5 4.75 C 15.5 5.25 16.460938 5.5 17 5.5 C 18.039062 5.5 19 4.964844 19 4 Z M 5 4 C 5 3.035156 5.574219 2.5 6.617188 2.5 C 7.65625 2.5 8.5 3.785156 8.5 4.75 C 8.5 5.25 7.539062 5.5 7 5.5 C 5.960938 5.5 5 4.964844 5 4 Z M 5 4 "/>
<path style=" stroke:none;fill-rule:nonzero;fill:rgb(25.882353%,25.882353%,25.882353%);fill-opacity:1;" d="M 17.5 3.5 C 17.222656 3.5 17 3.722656 17 4 C 17 4.277344 17.222656 4.5 17.5 4.5 C 17.777344 4.5 18 4.277344 18 4 C 18 3.722656 17.777344 3.5 17.5 3.5 Z M 6.5 3.5 C 6.222656 3.5 6 3.722656 6 4 C 6 4.277344 6.222656 4.5 6.5 4.5 C 6.777344 4.5 7 4.277344 7 4 C 7 3.722656 6.777344 3.5 6.5 3.5 Z M 6.5 3.5 "/>
<path style=" stroke:none;fill-rule:nonzero;fill:rgb(30.196078%,81.568627%,88.235294%);fill-opacity:1;" d="M 18.5 17 C 18.5 19.386719 16.890625 22 11.84375 22 C 7.785156 22 5.5 19.386719 5.5 17 C 5.5 14.5 6 14.097656 6 12 C 6 9.65625 6 8.5 6 7 C 6 4.613281 7.539062 1.5 11.84375 1.5 C 16.152344 1.5 18 3.496094 18 6.5 C 18 8 17.882812 9.226562 18 11.5 C 18.09375 13.28125 18.5 15.5 18.5 17 Z M 18.5 17 "/>
<path style=" stroke:none;fill-rule:nonzero;fill:rgb(96.078431%,96.078431%,96.078431%);fill-opacity:1;" d="M 14.5 3 C 13.394531 3 12.5 3.894531 12.5 5 C 12.5 6.105469 13.394531 7 14.5 7 C 15.605469 7 16.5 6.105469 16.5 5 C 16.5 3.894531 15.605469 3 14.5 3 Z M 9.5 3 C 8.394531 3 7.5 3.894531 7.5 5 C 7.5 6.105469 8.394531 7 9.5 7 C 10.605469 7 11.5 6.105469 11.5 5 C 11.5 3.894531 10.605469 3 9.5 3 Z M 9.5 3 "/>
<path style=" stroke:none;fill-rule:nonzero;fill:rgb(93.333333%,93.333333%,93.333333%);fill-opacity:1;" d="M 12 10 C 12 10.277344 12.222656 10.5 12.5 10.5 C 12.777344 10.5 13 10.277344 13 10 L 13 8.5 L 12 8.5 Z M 11 10 C 11 10.277344 11.222656 10.5 11.5 10.5 C 11.777344 10.5 12 10.277344 12 10 L 12 8.5 L 11 8.5 Z M 11 10 "/>
<path style=" stroke:none;fill-rule:nonzero;fill:rgb(100%,80%,50.196078%);fill-opacity:1;" d="M 13.25 9 C 13.042969 9 12.921875 8.957031 12.746094 8.898438 C 12.257812 8.734375 11.734375 8.734375 11.246094 8.898438 C 11.070312 8.957031 10.953125 9 10.75 9 C 10.082031 9 10 8.5 10 8.25 C 10 7.5 10.75 7 11.5 7 C 11.917969 7 12.082031 7 12.5 7 C 13.25 7 14 7.5 14 8.25 C 14 8.5 13.917969 9 13.25 9 Z M 13.25 9 "/>
<path style=" stroke:none;fill-rule:nonzero;fill:rgb(25.882353%,25.882353%,25.882353%);fill-opacity:1;" d="M 13.5 4.5 C 13.222656 4.5 13 4.722656 13 5 C 13 5.277344 13.222656 5.5 13.5 5.5 C 13.777344 5.5 14 5.277344 14 5 C 14 4.722656 13.777344 4.5 13.5 4.5 Z M 8.5 4.5 C 8.222656 4.5 8 4.722656 8 5 C 8 5.277344 8.222656 5.5 8.5 5.5 C 8.777344 5.5 9 5.277344 9 5 C 9 4.722656 8.777344 4.5 8.5 4.5 Z M 12 6.5 C 11.449219 6.5 11 6.722656 11 7 C 11 7.277344 11.449219 7.5 12 7.5 C 12.550781 7.5 13 7.277344 13 7 C 13 6.722656 12.550781 6.5 12 6.5 Z M 12 6.5 "/>
</g>
</svg>
