<?xml version="1.0" encoding="UTF-8"?>
<svg xmlns="http://www.w3.org/2000/svg" xmlns:xlink="http://www.w3.org/1999/xlink" width="px" height="px" viewBox="0 0 24 24" version="1.1">
<g id="surface1">
<path style=" stroke:none;fill-rule:nonzero;fill:rgb(95.686275%,26.27451%,21.176471%);fill-opacity:1;" d="M 11.824219 12.449219 C 11.324219 11.644531 10.964844 10.976562 10.460938 9.722656 C 9.613281 7.601562 15.621094 5.683594 13.183594 2 C 14.242188 4.542969 9.398438 6.117188 8.945312 8.234375 C 8.535156 10.183594 11.824219 12.449219 11.824219 12.449219 Z M 11.824219 12.449219 "/>
<path style=" stroke:none;fill-rule:nonzero;fill:rgb(95.686275%,26.27451%,21.176471%);fill-opacity:1;" d="M 11.9375 8.636719 C 11.84375 9.894531 13.054688 10.5625 13.089844 11.484375 C 13.117188 12.230469 12.363281 12.855469 12.363281 12.855469 C 12.363281 12.855469 13.730469 12.585938 14.15625 11.445312 C 14.628906 10.179688 13.238281 9.308594 13.378906 8.296875 C 13.515625 7.328125 16.394531 5.523438 16.394531 5.523438 C 16.394531 5.523438 12.15625 5.804688 11.9375 8.636719 Z M 11.9375 8.636719 "/>
<path style=" stroke:none;fill-rule:nonzero;fill:rgb(8.235294%,39.607843%,75.294118%);fill-opacity:1;" d="M 16.042969 12.527344 C 16.917969 12.332031 17.660156 12.890625 17.660156 13.53125 C 17.660156 14.984375 15.648438 16.355469 15.648438 16.355469 C 15.648438 16.355469 18.761719 15.984375 18.761719 13.601562 C 18.761719 12.027344 17.230469 11.632812 16.042969 12.527344 Z M 14.566406 13.699219 C 14.566406 13.699219 15.535156 13.007812 15.792969 12.746094 C 13.410156 13.253906 7.972656 13.320312 7.972656 12.882812 C 7.972656 12.476562 9.726562 12.0625 9.726562 12.0625 C 9.726562 12.0625 5.839844 12.007812 5.839844 13.152344 C 5.839844 14.347656 10.929688 14.433594 14.566406 13.699219 Z M 14.566406 13.699219 "/>
<path style=" stroke:none;fill-rule:nonzero;fill:rgb(8.235294%,39.607843%,75.294118%);fill-opacity:1;" d="M 13.96875 14.785156 C 11.714844 15.535156 7.558594 15.296875 8.789062 14.289062 C 8.191406 14.289062 7.304688 14.769531 7.304688 15.234375 C 7.304688 16.160156 11.792969 16.878906 15.117188 15.519531 Z M 13.96875 14.785156 "/>
<path style=" stroke:none;fill-rule:nonzero;fill:rgb(8.235294%,39.607843%,75.294118%);fill-opacity:1;" d="M 9.34375 16.371094 C 8.523438 16.371094 7.996094 16.898438 7.996094 17.28125 C 7.996094 18.476562 12.875 18.597656 14.808594 17.382812 L 13.578125 16.566406 C 12.136719 17.203125 8.507812 17.289062 9.34375 16.371094 Z M 9.34375 16.371094 "/>
<path style=" stroke:none;fill-rule:nonzero;fill:rgb(8.235294%,39.607843%,75.294118%);fill-opacity:1;" d="M 18.140625 18.316406 C 18.140625 17.847656 17.613281 17.628906 17.425781 17.523438 C 18.539062 20.207031 6.265625 20 6.265625 18.414062 C 6.265625 18.054688 7.167969 17.699219 8.003906 17.867188 L 7.292969 17.449219 C 5.628906 17.1875 4.5 17.917969 4.5 18.507812 C 4.5 21.261719 18.140625 21.128906 18.140625 18.316406 Z M 18.140625 18.316406 "/>
<path style=" stroke:none;fill-rule:nonzero;fill:rgb(8.235294%,39.607843%,75.294118%);fill-opacity:1;" d="M 19.5 19.300781 C 17.425781 21.347656 12.171875 22.09375 6.882812 20.832031 C 12.171875 23.082031 19.476562 21.8125 19.5 19.300781 Z M 19.5 19.300781 "/>
</g>
</svg>
