<?xml version="1.0" encoding="UTF-8"?>
<svg xmlns="http://www.w3.org/2000/svg" xmlns:xlink="http://www.w3.org/1999/xlink" width="px" height="px" viewBox="0 0 24 24" version="1.1">
<g id="surface1">
<path style=" stroke:none;fill-rule:nonzero;fill:rgb(100%,83.921569%,0%);fill-opacity:1;" d="M 3 21 L 3 3 L 21 3 L 21 21 Z M 3 21 "/>
<path style=" stroke:none;fill-rule:nonzero;fill:rgb(0%,0%,0.392157%);fill-opacity:1;" d="M 14.769531 16.472656 C 15.113281 17.035156 15.492188 17.574219 16.289062 17.574219 C 16.957031 17.574219 17.308594 17.242188 17.308594 16.78125 C 17.308594 16.230469 16.945312 16.035156 16.207031 15.714844 L 15.804688 15.542969 C 14.640625 15.050781 13.867188 14.429688 13.867188 13.121094 C 13.867188 11.917969 14.789062 11 16.230469 11 C 17.257812 11 17.992188 11.355469 18.527344 12.285156 L 17.269531 13.089844 C 16.992188 12.597656 16.695312 12.402344 16.230469 12.402344 C 15.757812 12.402344 15.457031 12.699219 15.457031 13.089844 C 15.457031 13.574219 15.757812 13.765625 16.449219 14.066406 L 16.851562 14.238281 C 18.226562 14.824219 19 15.417969 19 16.761719 C 19 18.207031 17.859375 19 16.324219 19 C 14.824219 19 13.972656 18.246094 13.5 17.316406 Z M 8.976562 16.515625 C 9.230469 16.96875 9.613281 17.316406 10.167969 17.316406 C 10.695312 17.316406 11 17.105469 11 16.292969 L 11 11 L 12.667969 11 L 12.667969 16.550781 C 12.667969 18.234375 11.691406 19 10.265625 19 C 8.976562 19 8.046875 18.128906 7.667969 17.316406 Z M 8.976562 16.515625 "/>
</g>
</svg>
