<?xml version="1.0" encoding="UTF-8"?>
<svg xmlns="http://www.w3.org/2000/svg" xmlns:xlink="http://www.w3.org/1999/xlink" width="px" height="px" viewBox="0 0 200 200" version="1.1">
<g id="surface1">
<path style=" stroke:none;fill-rule:nonzero;fill:rgb(0%,0%,0%);fill-opacity:1;" d="M 0 109.53125 C 0 126.199219 2.5 139.496094 7.5 149.425781 C 12.847656 159.984375 21.144531 167.796875 32.394531 172.863281 C 43.785156 178.210938 55.417969 181.511719 67.292969 182.761719 C 77.984375 184.011719 89.515625 184.636719 101.875 184.636719 C 107.222656 184.636719 113.921875 184.425781 121.980469 184.011719 C 128.714844 183.59375 135.886719 182.671875 143.488281 181.25 C 151.09375 179.828125 157.640625 177.96875 163.125 175.675781 C 169.375 173.039062 175.140625 169.480469 180.417969 165 C 185.695312 160.519531 189.792969 155.328125 192.707031 149.425781 C 197.570312 139.496094 200 126.199219 200 109.53125 C 200 90.503906 194.546875 74.601562 183.644531 61.824219 C 185.796875 55.363281 186.875 48.59375 186.875 41.511719 C 186.875 32.136719 184.859375 23.421875 180.832031 15.363281 C 172.570312 15.363281 165.191406 16.824219 158.699219 19.738281 C 152.203125 22.65625 144.515625 27.585938 135.625 34.53125 C 124.722656 31.960938 113.472656 30.675781 101.875 30.675781 C 89.234375 30.675781 76.875 32.066406 64.792969 34.84375 C 55.695312 27.691406 47.898438 22.65625 41.40625 19.738281 C 34.914062 16.824219 27.535156 15.363281 19.269531 15.363281 C 15.171875 23.351562 13.125 32.066406 13.125 41.511719 C 13.125 48.664062 14.203125 55.503906 16.355469 62.03125 C 5.453125 74.808594 0 90.640625 0 109.53125 Z M 26.875 130.675781 C 26.875 120.816406 29.703125 112.585938 35.363281 105.988281 C 41.023438 99.390625 48.472656 96.09375 57.707031 96.09375 C 61.390625 96.09375 69.203125 96.960938 81.144531 98.699219 C 87.257812 99.601562 93.542969 100.050781 100 100.050781 C 106.457031 100.050781 112.777344 99.601562 118.957031 98.699219 C 131.109375 96.960938 138.921875 96.09375 142.394531 96.09375 C 151.632812 96.09375 159.0625 99.390625 164.6875 105.988281 C 170.3125 112.585938 173.125 120.816406 173.125 130.675781 C 173.125 137.691406 171.839844 143.871094 169.269531 149.21875 C 166.703125 154.359375 163.488281 158.4375 159.636719 161.457031 C 155.78125 164.480469 150.867188 166.890625 144.894531 168.699219 C 135.035156 171.683594 123.4375 173.175781 110.105469 173.175781 L 89.894531 173.175781 C 83.296875 173.175781 77.328125 172.863281 71.980469 172.238281 C 66.285156 171.683594 60.554688 170.46875 54.792969 168.59375 C 49.027344 166.71875 44.269531 164.359375 40.519531 161.511719 C 36.421875 158.316406 33.125 154.0625 30.625 148.75 C 28.125 143.4375 26.875 137.414062 26.875 130.675781 Z M 46.144531 130.675781 C 46.144531 133.941406 46.667969 137.238281 47.707031 140.574219 C 48.75 144.183594 50.539062 147.292969 53.074219 149.894531 C 55.609375 152.5 58.4375 153.800781 61.5625 153.800781 C 64.894531 153.800781 67.8125 152.449219 70.3125 149.738281 C 74.6875 144.671875 76.875 138.316406 76.875 130.675781 C 76.875 127.484375 76.421875 124.21875 75.519531 120.886719 C 74.480469 117.273438 72.691406 114.167969 70.15625 111.5625 C 67.621094 108.957031 64.757812 107.65625 61.5625 107.65625 C 58.230469 107.65625 55.3125 109.046875 52.8125 111.824219 C 48.367188 116.613281 46.144531 122.898438 46.144531 130.675781 Z M 123.125 130.675781 C 123.125 133.941406 123.644531 137.238281 124.6875 140.574219 C 125.730469 144.183594 127.5 147.292969 130 149.894531 C 132.5 152.5 135.3125 153.800781 138.4375 153.800781 C 141.839844 153.800781 144.792969 152.449219 147.292969 149.738281 C 151.667969 144.671875 153.855469 138.316406 153.855469 130.675781 C 153.855469 127.691406 153.367188 124.425781 152.394531 120.886719 C 151.355469 117.273438 149.566406 114.167969 147.03125 111.5625 C 144.496094 108.957031 141.632812 107.65625 138.4375 107.65625 C 135.105469 107.65625 132.257812 109.046875 129.894531 111.824219 C 125.382812 116.613281 123.125 122.898438 123.125 130.675781 Z M 123.125 130.675781 "/>
</g>
</svg>
