<?xml version="1.0" encoding="UTF-8"?>
<svg xmlns="http://www.w3.org/2000/svg" xmlns:xlink="http://www.w3.org/1999/xlink" width="px" height="px" viewBox="0 0 400 400" version="1.1">
<defs>
<radialGradient id="radial0" gradientUnits="userSpaceOnUse" cx="-16.114" cy="20.532" fx="-16.114" fy="20.532" r="18.384" gradientTransform="matrix(12.5,0,0,12.5,331.5,-116.3375)">
<stop offset="0" style="stop-color:rgb(100%,100%,100%);stop-opacity:1;"/>
<stop offset="0.5" style="stop-color:rgb(29.803922%,41.960784%,58.823529%);stop-opacity:1;"/>
<stop offset="1" style="stop-color:rgb(13.72549%,12.156863%,12.54902%);stop-opacity:1;"/>
</radialGradient>
</defs>
<g id="surface1">
<path style=" stroke:none;fill-rule:nonzero;fill:url(#radial0);" d="M 375 200 C 375 149.15625 296.648438 107.9375 200 107.9375 C 103.351562 107.9375 25 149.15625 25 200 C 25 250.84375 103.351562 292.0625 200 292.0625 C 296.648438 292.0625 375 250.84375 375 200 Z M 375 200 "/>
<path style=" stroke:none;fill-rule:nonzero;fill:rgb(38.431373%,50.196078%,71.372549%);fill-opacity:1;" d="M 368.164062 200 C 368.164062 152.929688 292.875 114.773438 200 114.773438 C 107.125 114.773438 31.835938 152.929688 31.835938 200 C 31.835938 247.070312 107.125 285.226562 200 285.226562 C 292.875 285.226562 368.164062 247.070312 368.164062 200 Z M 368.164062 200 "/>
<path style=" stroke:none;fill-rule:nonzero;fill:rgb(100%,100%,100%);fill-opacity:1;" d="M 234.0625 227.5 L 242.398438 184.574219 C 244.816406 177.097656 243.042969 168.898438 237.75 163.085938 C 230.492188 157.933594 221.605469 155.601562 212.75 156.523438 L 198.335938 156.523438 L 202.476562 135.273438 C 202.628906 134.472656 202.414062 133.644531 201.894531 133.019531 C 201.375 132.390625 200.601562 132.027344 199.789062 132.023438 L 179.789062 132.023438 C 178.476562 132.023438 177.351562 132.953125 177.101562 134.238281 L 168.238281 179.8125 C 167.554688 174.941406 165.484375 170.367188 162.273438 166.636719 C 155.039062 159.390625 144.980469 155.703125 134.773438 156.550781 L 96.25 156.550781 C 94.941406 156.550781 93.8125 157.476562 93.5625 158.761719 L 75.636719 251.011719 C 75.484375 251.8125 75.695312 252.640625 76.21875 253.269531 C 76.738281 253.898438 77.507812 254.261719 78.324219 254.261719 L 98.363281 254.261719 C 99.671875 254.261719 100.796875 253.335938 101.050781 252.050781 L 105.386719 229.738281 L 120.386719 229.738281 C 127.011719 229.914062 133.621094 229.070312 139.988281 227.238281 C 145.355469 225.460938 150.265625 222.519531 154.363281 218.625 C 157.722656 215.566406 160.585938 212.007812 162.863281 208.074219 L 159.273438 226.511719 C 159.121094 227.3125 159.335938 228.140625 159.855469 228.769531 C 160.375 229.398438 161.148438 229.761719 161.960938 229.761719 L 181.960938 229.761719 C 183.273438 229.761719 184.398438 228.835938 184.648438 227.550781 L 194.488281 176.914062 L 208.164062 176.914062 C 213.988281 176.914062 215.664062 178.074219 216.164062 178.574219 C 216.664062 179.074219 217.414062 180.636719 216.476562 185.6875 L 208.539062 226.5 C 208.386719 227.300781 208.597656 228.128906 209.117188 228.757812 C 209.636719 229.386719 210.410156 229.75 211.226562 229.75 L 231.476562 229.75 C 232.757812 229.699219 233.835938 228.765625 234.0625 227.5 Z M 141.625 192.074219 C 141.011719 197.324219 138.523438 202.171875 134.613281 205.726562 C 129.699219 208.78125 123.941406 210.1875 118.175781 209.738281 L 109.273438 209.738281 L 115.710938 176.601562 L 127.226562 176.601562 C 135.6875 176.601562 139.085938 178.414062 140.460938 179.925781 C 142.585938 183.617188 143.007812 188.046875 141.625 192.074219 Z M 141.625 192.074219 "/>
<path style=" stroke:none;fill-rule:nonzero;fill:rgb(100%,100%,100%);fill-opacity:1;" d="M 319.324219 166.648438 C 312.089844 159.402344 302.03125 155.714844 291.824219 156.5625 L 253.1875 156.5625 C 251.878906 156.5625 250.75 157.488281 250.5 158.773438 L 232.574219 251.023438 C 232.421875 251.824219 232.632812 252.652344 233.15625 253.28125 C 233.675781 253.910156 234.445312 254.273438 235.261719 254.273438 L 255.363281 254.273438 C 256.671875 254.273438 257.796875 253.347656 258.050781 252.0625 L 262.386719 229.75 L 277.386719 229.75 C 284.011719 229.925781 290.621094 229.082031 296.988281 227.25 C 302.355469 225.472656 307.265625 222.53125 311.363281 218.636719 C 318.382812 212.3125 323.109375 203.84375 324.8125 194.550781 C 327.539062 184.90625 325.5 174.542969 319.324219 166.648438 Z M 298.488281 192.074219 C 297.875 197.324219 295.386719 202.171875 291.476562 205.726562 C 286.550781 208.785156 280.777344 210.183594 275 209.726562 L 266.125 209.726562 L 272.5625 176.585938 L 284.074219 176.585938 C 292.539062 176.585938 295.9375 178.398438 297.3125 179.914062 C 299.441406 183.605469 299.871094 188.042969 298.488281 192.074219 Z M 298.488281 192.074219 "/>
<path style=" stroke:none;fill-rule:nonzero;fill:rgb(0%,0%,1.568627%);fill-opacity:1;" d="M 127.226562 173.851562 C 132.671875 173.164062 138.167969 174.683594 142.488281 178.074219 C 145.285156 182.378906 145.953125 187.726562 144.300781 192.585938 C 143.585938 198.492188 140.730469 203.933594 136.273438 207.875 C 130.902344 211.335938 124.550781 212.957031 118.175781 212.5 L 105.949219 212.5 L 113.449219 173.886719 Z M 78.261719 251.550781 L 98.363281 251.550781 L 103.125 227.023438 L 120.335938 227.023438 C 126.671875 227.199219 132.996094 226.394531 139.085938 224.636719 C 144.085938 222.988281 148.652344 220.246094 152.460938 216.613281 C 159.054688 210.683594 163.496094 202.734375 165.085938 194.011719 C 167.644531 185.214844 165.859375 175.726562 160.273438 168.460938 C 153.554688 161.816406 144.25 158.46875 134.835938 159.3125 L 96.25 159.3125 Z M 78.261719 251.550781 "/>
<path style=" stroke:none;fill-rule:nonzero;fill:rgb(0%,0%,1.568627%);fill-opacity:1;" d="M 179.835938 134.773438 L 199.835938 134.773438 L 195 159.300781 L 212.761719 159.300781 C 220.921875 158.445312 229.117188 160.519531 235.886719 165.148438 C 240.449219 170.335938 241.902344 177.554688 239.699219 184.101562 L 231.363281 227.023438 L 211.125 227.023438 L 219.0625 186.210938 C 220.183594 183.058594 219.816406 179.566406 218.0625 176.710938 C 215.167969 174.640625 211.59375 173.746094 208.0625 174.210938 L 192.125 174.210938 L 181.851562 227.0625 L 161.851562 227.0625 Z M 179.835938 134.773438 "/>
<path style=" stroke:none;fill-rule:nonzero;fill:rgb(0%,0%,1.568627%);fill-opacity:1;" d="M 284.085938 173.851562 C 289.535156 173.164062 295.03125 174.683594 299.351562 178.074219 C 302.144531 182.378906 302.8125 187.726562 301.164062 192.585938 C 300.449219 198.492188 297.59375 203.933594 293.136719 207.875 C 287.753906 211.34375 281.386719 212.96875 275 212.5 L 262.773438 212.5 L 270.273438 173.886719 Z M 235.125 251.550781 L 255.226562 251.550781 L 259.988281 227.023438 L 277.199219 227.023438 C 283.535156 227.199219 289.859375 226.394531 295.949219 224.636719 C 300.949219 222.988281 305.515625 220.246094 309.324219 216.613281 C 315.917969 210.683594 320.355469 202.734375 321.949219 194.011719 C 324.507812 185.214844 322.722656 175.726562 317.136719 168.460938 C 310.417969 161.816406 301.113281 158.46875 291.699219 159.3125 L 253.050781 159.3125 Z M 235.125 251.550781 "/>
</g>
</svg>
