<?xml version="1.0" encoding="UTF-8"?>
<svg xmlns="http://www.w3.org/2000/svg" xmlns:xlink="http://www.w3.org/1999/xlink" width="px" height="px" viewBox="0 0 24 24" version="1.1">
<g id="surface1">
<path style=" stroke:none;fill-rule:nonzero;fill:rgb(0.784314%,46.666667%,74.117647%);fill-opacity:1;" d="M 12.023438 2.5 C 11.246094 2.503906 10.707031 2.570312 10.054688 2.683594 C 8.132812 3.019531 7.78125 3.722656 7.78125 5.019531 L 7.78125 7 L 12.28125 7 L 12.28125 8 L 5.433594 8 C 4.117188 8 2.964844 8.621094 2.597656 10.109375 C 2.183594 11.816406 2.167969 12.886719 2.597656 14.671875 C 2.925781 16.003906 3.648438 17 4.964844 17 L 6.78125 17 L 6.78125 14.449219 C 6.78125 12.964844 8.125 11.5 9.664062 11.5 L 13.28125 11.5 C 14.542969 11.5 15.78125 10.570312 15.78125 9.3125 L 15.78125 5.019531 C 15.78125 3.800781 14.902344 2.886719 13.671875 2.683594 C 13.703125 2.679688 12.792969 2.496094 12.023438 2.5 Z M 9.53125 4.5 C 9.941406 4.5 10.28125 4.839844 10.28125 5.25 C 10.28125 5.667969 9.941406 6 9.53125 6 C 9.113281 6 8.78125 5.667969 8.78125 5.25 C 8.78125 4.839844 9.113281 4.5 9.53125 4.5 Z M 9.53125 4.5 "/>
<path style=" stroke:none;fill-rule:nonzero;fill:rgb(100%,75.686275%,2.745098%);fill-opacity:1;" d="M 11.539062 21.5 C 12.316406 21.496094 12.855469 21.429688 13.507812 21.316406 C 15.429688 20.980469 15.78125 20.277344 15.78125 18.980469 L 15.78125 17 L 11.28125 17 L 11.28125 16 L 18.128906 16 C 19.445312 16 20.597656 15.378906 20.964844 13.890625 C 21.378906 12.183594 21.398438 11.113281 20.964844 9.328125 C 20.636719 7.996094 19.914062 7 18.597656 7 L 16.78125 7 L 16.78125 9.550781 C 16.78125 11.035156 15.4375 12.5 13.898438 12.5 L 10.28125 12.5 C 9.019531 12.5 7.78125 13.429688 7.78125 14.6875 L 7.78125 18.980469 C 7.78125 20.199219 8.660156 21.113281 9.890625 21.316406 C 9.859375 21.320312 10.769531 21.503906 11.539062 21.5 Z M 14.03125 19.5 C 13.621094 19.5 13.28125 19.160156 13.28125 18.75 C 13.28125 18.332031 13.621094 18 14.03125 18 C 14.449219 18 14.78125 18.332031 14.78125 18.75 C 14.78125 19.160156 14.449219 19.5 14.03125 19.5 Z M 14.03125 19.5 "/>
</g>
</svg>
