<?xml version="1.0" encoding="UTF-8"?>
<svg xmlns="http://www.w3.org/2000/svg" xmlns:xlink="http://www.w3.org/1999/xlink" width="px" height="px" viewBox="0 0 400 400" version="1.1">
<defs>
<radialGradient id="radial0" gradientUnits="userSpaceOnUse" cx="-492.035" cy="-883.37" fx="-492.035" fy="-883.37" r="13.998" gradientTransform="matrix(10.825,-6.25,-3.75,-6.5,2213.825,-8612.9125)">
<stop offset="0" style="stop-color:rgb(49.019608%,49.019608%,49.019608%);stop-opacity:1;"/>
<stop offset="0.267" style="stop-color:rgb(49.411765%,48.627451%,47.843137%);stop-opacity:1;"/>
<stop offset="0.45" style="stop-color:rgb(50.588235%,47.058824%,44.313725%);stop-opacity:1;"/>
<stop offset="0.608" style="stop-color:rgb(52.54902%,44.313725%,38.431373%);stop-opacity:1;"/>
<stop offset="0.753" style="stop-color:rgb(55.294118%,40.784314%,29.803922%);stop-opacity:1;"/>
<stop offset="0.886" style="stop-color:rgb(58.823529%,36.078431%,18.823529%);stop-opacity:1;"/>
<stop offset="1" style="stop-color:rgb(62.745098%,30.980392%,7.058824%);stop-opacity:1;"/>
</radialGradient>
</defs>
<g id="surface1">
<path style=" stroke:none;fill-rule:nonzero;fill:url(#radial0);" d="M 189.050781 66.25 C 189.050781 60.507812 193.707031 55.851562 199.449219 55.851562 C 205.195312 55.851562 209.851562 60.507812 209.851562 66.25 C 209.851562 71.992188 205.195312 76.648438 199.449219 76.648438 C 196.691406 76.652344 194.042969 75.558594 192.09375 73.609375 C 190.140625 71.65625 189.046875 69.007812 189.050781 66.25 M 65 160.425781 C 65 154.679688 69.65625 150.023438 75.398438 150.023438 C 81.144531 150.023438 85.800781 154.679688 85.800781 160.425781 C 85.800781 166.167969 81.144531 170.824219 75.398438 170.824219 C 69.65625 170.824219 65 166.167969 65 160.425781 M 313.199219 160.914062 C 313.199219 155.167969 317.855469 150.511719 323.601562 150.511719 C 329.34375 150.511719 334 155.167969 334 160.914062 C 334 166.65625 329.34375 171.3125 323.601562 171.3125 C 320.839844 171.316406 318.195312 170.222656 316.242188 168.269531 C 314.292969 166.320312 313.195312 163.671875 313.199219 160.914062 M 95.0625 175.164062 C 99.835938 173.03125 101.992188 167.445312 99.886719 162.664062 L 95.273438 152.226562 L 113.425781 152.226562 L 113.425781 234.039062 L 76.800781 234.039062 C 72.28125 218.160156 70.871094 201.5625 72.648438 185.148438 Z M 170.988281 177.175781 L 170.988281 153.0625 L 214.210938 153.0625 C 216.449219 153.0625 229.976562 155.636719 229.976562 165.761719 C 229.976562 174.164062 219.601562 177.175781 211.0625 177.175781 Z M 111.976562 307.011719 C 111.976562 301.269531 116.632812 296.613281 122.375 296.613281 C 128.117188 296.613281 132.773438 301.269531 132.773438 307.011719 C 132.773438 312.757812 128.117188 317.414062 122.375 317.414062 C 119.617188 317.414062 116.96875 316.320312 115.015625 314.371094 C 113.066406 312.417969 111.972656 309.773438 111.976562 307.011719 M 266.113281 307.5 C 266.113281 301.757812 270.769531 297.101562 276.511719 297.101562 C 282.257812 297.101562 286.914062 301.757812 286.914062 307.5 C 286.914062 313.242188 282.257812 317.898438 276.511719 317.898438 C 270.769531 317.898438 266.113281 313.242188 266.113281 307.5 M 269.324219 283.914062 C 266.863281 283.386719 264.296875 283.859375 262.1875 285.230469 C 260.074219 286.597656 258.597656 288.75 258.074219 291.210938 L 252.851562 315.574219 C 218.867188 330.960938 179.867188 330.777344 146.039062 315.0625 L 140.824219 290.699219 C 139.726562 285.585938 134.691406 282.324219 129.574219 283.414062 L 108.0625 288.039062 C 104.0625 283.921875 100.347656 279.539062 96.9375 274.925781 L 201.613281 274.925781 C 202.800781 274.925781 203.585938 274.710938 203.585938 273.675781 L 203.585938 236.601562 C 203.585938 235.523438 202.800781 235.351562 201.613281 235.351562 L 170.988281 235.351562 L 170.988281 211.835938 L 204.101562 211.835938 C 214.292969 211.941406 222.914062 219.410156 224.460938 229.488281 C 225.773438 234.648438 228.664062 251.449219 230.636719 256.824219 C 232.601562 262.863281 240.636719 274.914062 249.164062 274.914062 L 303.199219 274.914062 C 299.578125 279.769531 295.613281 284.367188 291.335938 288.664062 Z M 327.449219 186.148438 C 328.183594 193.539062 328.277344 200.980469 327.726562 208.386719 L 314.585938 208.386719 C 313.273438 208.386719 312.738281 209.25 312.738281 210.539062 L 312.738281 216.574219 C 312.738281 230.773438 304.726562 233.875 297.738281 234.664062 C 291.050781 235.414062 283.636719 231.863281 282.738281 227.773438 C 281.761719 213.417969 274.003906 200.382812 261.851562 192.675781 C 274.726562 184.5 288.101562 172.4375 288.101562 156.289062 C 287.5625 142.347656 279.996094 129.625 268 122.5 C 259.765625 117.167969 250.292969 114.050781 240.5 113.449219 L 104.585938 113.449219 C 123.375 92.449219 148.5625 78.234375 176.25 73 L 192.273438 89.800781 C 195.886719 93.589844 201.886719 93.738281 205.675781 90.125 L 223.601562 72.976562 C 260.589844 79.914062 292.660156 102.773438 311.289062 135.476562 L 299.011719 163.1875 C 296.914062 167.972656 299.070312 173.550781 303.835938 175.6875 Z M 358.050781 186.601562 L 357.636719 182.3125 L 370.273438 170.523438 C 371.242188 169.519531 371.769531 168.167969 371.738281 166.773438 C 371.707031 165.375 371.121094 164.050781 370.113281 163.085938 C 369.667969 162.667969 369.160156 162.324219 368.601562 162.074219 L 352.5 156.039062 L 351.25 151.863281 L 361.324219 137.863281 C 362.875 135.40625 362.148438 132.160156 359.699219 130.601562 C 359.1875 130.277344 358.625 130.046875 358.039062 129.914062 L 341 127.136719 L 338.949219 123.3125 L 346.113281 107.601562 C 346.625 106.308594 346.601562 104.863281 346.046875 103.589844 C 345.492188 102.3125 344.457031 101.308594 343.164062 100.800781 C 342.582031 100.574219 341.960938 100.449219 341.335938 100.4375 L 324.050781 101.039062 L 321.25 97.738281 L 325.226562 80.898438 C 325.722656 78.035156 323.804688 75.308594 320.9375 74.8125 C 320.339844 74.710938 319.734375 74.710938 319.136719 74.8125 L 302.289062 78.75 L 298.960938 76.011719 L 299.574219 58.75 C 299.507812 55.84375 297.09375 53.542969 294.1875 53.613281 C 293.585938 53.628906 292.988281 53.746094 292.425781 53.960938 L 276.710938 61.125 L 272.886719 59.074219 L 270.113281 42.039062 C 269.472656 39.222656 266.683594 37.449219 263.863281 38.0625 C 263.273438 38.195312 262.710938 38.429688 262.199219 38.75 L 248.1875 48.824219 L 244.023438 47.574219 L 237.988281 31.414062 C 236.8125 28.753906 233.707031 27.550781 231.050781 28.726562 C 230.5 28.972656 229.992188 29.3125 229.550781 29.726562 L 217.726562 42.375 L 213.4375 41.960938 L 204.335938 27.25 C 203.351562 25.851562 201.746094 25.019531 200.039062 25.019531 C 198.328125 25.019531 196.722656 25.851562 195.738281 27.25 L 186.636719 41.960938 L 182.351562 42.375 L 170.5625 29.726562 C 168.457031 27.722656 165.128906 27.808594 163.125 29.914062 C 162.710938 30.355469 162.375 30.859375 162.125 31.414062 L 156.039062 47.5 L 151.875 48.75 L 137.875 38.75 C 135.417969 37.199219 132.171875 37.925781 130.613281 40.375 C 130.292969 40.886719 130.058594 41.449219 129.925781 42.039062 L 127.148438 59.074219 L 123.324219 61.125 L 107.601562 53.960938 C 104.898438 52.914062 101.855469 54.25 100.800781 56.949219 C 100.585938 57.527344 100.464844 58.132812 100.449219 58.75 L 101.050781 76.039062 L 97.726562 78.75 L 80.886719 74.800781 C 78.023438 74.300781 75.296875 76.222656 74.800781 79.085938 C 74.699219 79.683594 74.699219 80.292969 74.800781 80.886719 L 78.75 97.738281 L 76.023438 101.050781 L 58.75 100.449219 C 57.039062 100.496094 55.453125 101.367188 54.503906 102.792969 C 53.550781 104.214844 53.347656 106.011719 53.960938 107.613281 L 61.125 123.324219 L 59.074219 127.148438 L 42.039062 129.925781 C 39.21875 130.558594 37.441406 133.351562 38.0625 136.175781 C 38.195312 136.765625 38.429688 137.324219 38.75 137.835938 L 48.824219 151.835938 L 47.574219 156.011719 L 31.414062 162.050781 C 28.753906 163.222656 27.550781 166.328125 28.726562 168.988281 C 28.96875 169.546875 29.3125 170.058594 29.738281 170.5 L 42.375 182.289062 L 41.960938 186.574219 L 27.25 195.675781 C 25.851562 196.660156 25.019531 198.265625 25.019531 199.976562 C 25.019531 201.683594 25.851562 203.289062 27.25 204.273438 L 41.960938 213.375 L 42.375 217.664062 L 29.738281 229.449219 C 27.738281 231.554688 27.820312 234.886719 29.925781 236.886719 C 30.363281 237.300781 30.863281 237.636719 31.414062 237.886719 L 47.574219 243.925781 L 48.824219 248.101562 L 38.75 262.148438 C 37.195312 264.609375 37.929688 267.859375 40.386719 269.414062 C 40.898438 269.734375 41.460938 269.964844 42.050781 270.101562 L 59.085938 272.875 L 61.136719 276.710938 L 53.976562 292.425781 C 52.929688 295.132812 54.269531 298.179688 56.976562 299.238281 C 57.546875 299.453125 58.152344 299.570312 58.761719 299.585938 L 76.050781 298.988281 L 78.789062 302.3125 L 74.824219 319.164062 C 74.324219 322.015625 76.234375 324.734375 79.085938 325.238281 C 79.691406 325.347656 80.308594 325.347656 80.914062 325.238281 L 97.726562 321.25 L 101.050781 323.976562 L 100.4375 341.25 C 100.46875 342.640625 101.050781 343.964844 102.054688 344.925781 C 103.0625 345.886719 104.410156 346.410156 105.800781 346.375 C 106.410156 346.363281 107.015625 346.246094 107.585938 346.023438 L 123.300781 338.863281 L 127.125 340.914062 L 129.898438 357.9375 C 130.535156 360.757812 133.324219 362.539062 136.148438 361.925781 C 136.742188 361.796875 137.304688 361.5625 137.8125 361.238281 L 151.8125 351.148438 L 155.988281 352.398438 L 162.023438 368.550781 C 163.210938 371.203125 166.316406 372.398438 168.976562 371.226562 C 169.523438 370.976562 170.023438 370.636719 170.460938 370.226562 L 182.25 357.585938 L 186.539062 358.011719 L 195.636719 372.726562 C 197.324219 375.097656 200.613281 375.65625 202.988281 373.976562 C 203.472656 373.632812 203.894531 373.210938 204.238281 372.726562 L 213.335938 358.011719 L 217.625 357.585938 L 229.414062 370.226562 C 231.519531 372.226562 234.847656 372.140625 236.851562 370.039062 C 237.261719 369.601562 237.601562 369.097656 237.851562 368.550781 L 243.886719 352.398438 L 248.0625 351.148438 L 262.0625 361.238281 C 264.519531 362.792969 267.773438 362.058594 269.324219 359.601562 C 269.644531 359.089844 269.878906 358.527344 270.011719 357.9375 L 272.789062 340.914062 L 276.613281 338.863281 L 292.324219 346.023438 C 295.027344 347.070312 298.066406 345.734375 299.125 343.039062 C 299.339844 342.464844 299.457031 341.859375 299.476562 341.25 L 298.875 323.949219 L 302.1875 321.226562 L 319.023438 325.1875 C 321.878906 325.6875 324.597656 323.789062 325.113281 320.9375 C 325.210938 320.332031 325.210938 319.714844 325.113281 319.113281 L 321.25 302.289062 L 323.976562 298.960938 L 341.261719 299.5625 C 344.164062 299.488281 346.457031 297.078125 346.386719 294.175781 C 346.378906 293.566406 346.261719 292.964844 346.039062 292.398438 L 338.875 276.6875 L 340.925781 272.851562 L 357.960938 270.074219 C 360.78125 269.441406 362.5625 266.648438 361.949219 263.824219 C 361.8125 263.226562 361.578125 262.65625 361.25 262.136719 L 351.175781 248.136719 L 352.425781 243.960938 L 368.585938 237.925781 C 371.242188 236.757812 372.445312 233.65625 371.273438 231 C 371.03125 230.441406 370.6875 229.929688 370.261719 229.488281 L 357.625 217.699219 L 358.039062 213.414062 L 372.75 204.3125 C 374.148438 203.328125 374.980469 201.722656 374.980469 200.011719 C 374.980469 198.300781 374.148438 196.699219 372.75 195.710938 Z M 358.050781 186.601562 "/>
</g>
</svg>
