<?xml version="1.0" encoding="UTF-8"?>
<svg xmlns="http://www.w3.org/2000/svg" xmlns:xlink="http://www.w3.org/1999/xlink" width="px" height="px" viewBox="0 0 400 400" version="1.1">
<g id="surface1">
<path style=" stroke:none;fill-rule:nonzero;fill:rgb(0%,73.72549%,94.901961%);fill-opacity:1;" d="M 176.875 399.292969 C 158.460938 395.632812 142.5625 383.039062 134.832031 365.992188 C 131.433594 358.492188 129.984375 351.40625 130.011719 342.375 C 130.078125 316.410156 146.40625 294.726562 171.769531 286.910156 C 176.441406 285.472656 179.527344 285.089844 186.691406 285.074219 C 191.65625 285.0625 197.132812 285.320312 198.863281 285.65625 L 202.003906 286.265625 L 205.867188 278.757812 C 213.761719 263.429688 226.066406 251.386719 241.96875 243.421875 C 255.089844 236.851562 263.335938 234.941406 278.566406 234.941406 C 289.234375 234.941406 291.707031 235.199219 298.589844 237.019531 C 328.3125 244.894531 351.476562 268.222656 358.769531 297.613281 C 360.59375 304.972656 361.503906 321.472656 360.441406 327.945312 L 359.71875 332.367188 L 363.878906 333.296875 C 374.3125 335.632812 383.3125 342.921875 387.917969 352.757812 C 392.46875 362.484375 391.636719 375.070312 385.832031 384.265625 C 382.867188 388.960938 377.058594 394.175781 372.210938 396.496094 C 369.726562 397.6875 367.082031 398.980469 366.332031 399.375 C 364.648438 400.257812 181.332031 400.179688 176.875 399.292969 Z M 367.453125 388.445312 C 372.609375 385.878906 377.710938 380.144531 379.828125 374.53125 C 384.226562 362.878906 378.359375 349.339844 366.65625 344.132812 C 363.699219 342.816406 361.492188 342.515625 355.328125 342.570312 C 351.117188 342.613281 347.671875 342.347656 347.671875 341.980469 C 347.671875 341.617188 348.453125 338.199219 349.410156 334.386719 C 351.855469 324.628906 351.828125 309.074219 349.351562 299.574219 C 343.890625 278.628906 329.734375 261.15625 310.367188 251.464844 C 301.859375 247.207031 293.765625 245.261719 282.707031 244.808594 C 266.339844 244.140625 254.914062 246.71875 242.324219 253.925781 C 227.644531 262.324219 214.988281 277.546875 210.082031 292.703125 C 209.136719 295.621094 207.996094 298 207.539062 297.996094 C 207.082031 297.988281 204.414062 297.230469 201.609375 296.304688 C 193.796875 293.734375 180.476562 293.890625 172.683594 296.644531 C 164.835938 299.417969 159.1875 302.96875 153.308594 308.832031 C 144.492188 317.621094 139.59375 329.597656 139.59375 342.375 C 139.59375 361.34375 150.046875 377.976562 167.046875 386.0625 C 176.820312 390.710938 173.4375 390.570312 272.675781 390.417969 L 363.765625 390.273438 L 367.449219 388.445312 Z M 104.628906 351.726562 C 71.675781 347.257812 46.308594 338.984375 27.546875 326.578125 C 19.804688 321.460938 14.460938 315.734375 11.445312 309.332031 L 9.199219 304.566406 L 9.613281 46.324219 L 11.488281 42.808594 C 16.226562 33.914062 25.464844 26.328125 40.179688 19.25 C 58.78125 10.296875 80.234375 4.703125 110.125 1 C 122.4375 -0.523438 164.242188 -0.253906 176.875 1.433594 C 223.398438 7.632812 259.5 22.835938 271.007812 41.066406 C 275.542969 48.25 275.425781 45.644531 275.425781 139.511719 L 275.425781 225.6875 L 272.875 226.085938 C 271.46875 226.300781 268.289062 226.695312 265.808594 226.960938 C 240.1875 229.699219 213.621094 247.410156 200 270.832031 L 197.210938 275.625 L 186.257812 276.140625 C 173.316406 276.753906 166.71875 278.410156 156.878906 283.527344 C 139.984375 292.3125 127.910156 307.542969 122.984375 326.273438 C 121.625 331.449219 121.222656 335.199219 121.195312 342.960938 L 121.136719 352.972656 L 116.800781 352.882812 C 114.414062 352.832031 108.925781 352.308594 104.609375 351.726562 Z M 171.625 232.714844 C 165.441406 227.46875 160.09375 222.921875 159.742188 222.609375 C 159.386719 222.296875 160.675781 221.121094 162.597656 219.996094 C 166.859375 217.5 172.34375 211.519531 174.675781 206.835938 C 180.371094 195.394531 180.242188 181.15625 174.34375 169.828125 C 167.859375 157.371094 154.285156 150.835938 138.90625 152.765625 C 130.488281 153.824219 125.214844 156.1875 119.648438 161.390625 C 110.871094 169.605469 107.828125 177.664062 108.289062 191.496094 C 108.554688 199.359375 108.832031 200.773438 111.082031 205.546875 C 115.921875 215.820312 126.042969 223.5 136.351562 224.71875 C 140.230469 225.179688 140.570312 225.433594 148.277344 233.722656 L 156.207031 242.25 L 182.863281 242.25 L 171.621094 232.714844 Z M 137.996094 205.933594 C 132.59375 203.191406 130.542969 198.496094 130.542969 188.875 C 130.542969 182.613281 130.847656 180.78125 132.386719 177.652344 C 134.847656 172.652344 139.757812 169.644531 144.574219 170.1875 C 149.308594 170.722656 151.773438 172.636719 154.277344 177.738281 C 156.179688 181.613281 156.453125 183.078125 156.433594 189.246094 C 156.433594 196.851562 155.058594 200.75 151.234375 204.308594 C 147.238281 208.027344 143.117188 208.53125 137.996094 205.933594 Z M 83.65625 224.160156 C 97.855469 220.882812 105.570312 208.992188 101.480469 196.679688 C 99.421875 190.480469 95.070312 186.609375 84.441406 181.519531 C 79.53125 179.167969 75.140625 176.765625 74.683594 176.175781 C 72.898438 173.882812 72.902344 172.359375 74.683594 170.273438 C 77.453125 167.054688 83.746094 166.902344 92.273438 169.84375 L 98.773438 172.085938 L 98.328125 154.726562 L 94.011719 153.699219 C 87.480469 152.148438 73.359375 152.222656 67.804688 153.839844 C 56.667969 157.085938 50.800781 164.363281 50.835938 174.890625 C 50.894531 185.71875 55.753906 190.855469 72.9375 198.144531 C 80.207031 201.230469 81.039062 206.996094 74.542969 209.25 C 71.535156 210.296875 70.679688 210.273438 65.917969 209.046875 C 63.011719 208.296875 58.605469 206.628906 56.121094 205.339844 L 51.605469 203 L 51.605469 221.789062 L 56.121094 223.046875 C 58.605469 223.738281 60.988281 224.425781 61.421875 224.578125 C 63.214844 225.203125 80.527344 224.878906 83.636719 224.160156 Z M 235.375 215.945312 L 235.375 207.699219 L 210.25 207.699219 L 210.25 153.515625 L 189.832031 153.515625 L 189.832031 224.191406 L 235.375 224.191406 Z M 174.910156 74.566406 C 195.386719 72.191406 212.191406 67.898438 222.8125 62.328125 C 229.789062 58.667969 231.464844 57.351562 234.144531 53.398438 C 242.441406 41.175781 223.867188 28.886719 187.867188 22.777344 C 154.046875 17.035156 109.476562 18.335938 80.949219 25.890625 C 22.089844 41.484375 45.292969 70.125 121.359375 75.769531 C 133.84375 76.695312 161.980469 76.0625 174.910156 74.566406 Z M 174.910156 74.566406 "/>
</g>
</svg>
