<?xml version="1.0" encoding="UTF-8"?>
<svg xmlns="http://www.w3.org/2000/svg" xmlns:xlink="http://www.w3.org/1999/xlink" width="px" height="px" viewBox="0 0 24 24" version="1.1">
<g id="surface1">
<path style=" stroke:none;fill-rule:nonzero;fill:rgb(100%,42.745098%,0%);fill-opacity:1;" d="M 3 5 C 3 3.894531 3.894531 3 5 3 L 19 3 C 20.105469 3 21 3.894531 21 5 L 21 19 C 21 20.105469 20.105469 21 19 21 L 5 21 C 3.894531 21 3 20.105469 3 19 Z M 3 5 "/>
<path style=" stroke:none;fill-rule:nonzero;fill:rgb(90.196078%,29.019608%,9.803922%);fill-opacity:1;" d="M 3 5 L 3 10.984375 L 5 12.984375 C 5 12.984375 10.578125 19.425781 15 15 C 19.421875 10.574219 13.007812 5.5 13.007812 5.5 L 10.507812 3 L 5 3 C 3.894531 3 3 3.894531 3 5 Z M 3 5 "/>
<path style=" stroke:none;fill-rule:nonzero;fill:rgb(100%,100%,100%);fill-opacity:1;" d="M 13.007812 5.5 C 18.722656 9.347656 16.875 13.59375 16.875 13.59375 C 16.875 13.59375 18.5 15.410156 17.84375 17 C 17.84375 17 17.171875 15.886719 16.050781 15.886719 C 14.964844 15.886719 14.328125 17 12.148438 17 C 7.296875 17 5 12.984375 5 12.984375 C 9.375 15.832031 12.359375 13.816406 12.359375 13.816406 C 10.390625 12.683594 6 7 6 7 C 9.648438 10.078125 11.5 11 11.5 11 C 10.558594 10.230469 7.5 6.5 7.5 6.5 C 9.613281 8.617188 14.152344 11.6875 14.152344 11.6875 C 15.34375 8.417969 13.007812 5.5 13.007812 5.5 Z M 13.007812 5.5 "/>
</g>
</svg>
