<?xml version="1.0" encoding="UTF-8"?>
<svg xmlns="http://www.w3.org/2000/svg" xmlns:xlink="http://www.w3.org/1999/xlink" width="px" height="px" viewBox="0 0 24 24" version="1.1">
<defs>
<linearGradient id="linear0" gradientUnits="userSpaceOnUse" x1="6" y1="24" x2="42" y2="24" gradientTransform="matrix(0.5,0,0,0.5,0,0)">
<stop offset="0" style="stop-color:rgb(5.098039%,38.039216%,66.27451%);stop-opacity:1;"/>
<stop offset="1" style="stop-color:rgb(8.627451%,32.156863%,54.901961%);stop-opacity:1;"/>
</linearGradient>
<filter id="alpha" filterUnits="objectBoundingBox" x="0%" y="0%" width="100%" height="100%">
  <feColorMatrix type="matrix" in="SourceGraphic" values="0 0 0 0 1 0 0 0 0 1 0 0 0 0 1 0 0 0 1 0"/>
</filter>
<mask id="mask0">
  <g filter="url(#alpha)">
<rect x="0" y="0" width="24" height="24" style="fill:rgb(0%,0%,0%);fill-opacity:0.0509804;stroke:none;"/>
  </g>
</mask>
<clipPath id="clip1">
  <rect x="0" y="0" width="24" height="24"/>
</clipPath>
<g id="surface5" clip-path="url(#clip1)">
<path style=" stroke:none;fill-rule:nonzero;fill:rgb(0%,0%,0%);fill-opacity:1;" d="M 19.410156 15.304688 C 19.003906 14.769531 18.460938 14.460938 17.933594 14.207031 C 17.773438 14.128906 17.613281 14.054688 17.453125 13.980469 C 17.121094 13.824219 16.777344 13.660156 16.453125 13.488281 C 16.210938 13.359375 16.261719 13.234375 16.289062 13.164062 C 16.316406 13.101562 16.421875 13.058594 16.546875 13.058594 C 16.585938 13.058594 16.625 13.0625 16.660156 13.070312 C 16.804688 13.09375 17.070312 13.324219 17.210938 13.535156 L 17.34375 13.742188 L 17.480469 13.953125 L 17.691406 13.816406 L 17.898438 13.683594 C 17.941406 13.65625 18.910156 13.03125 19.277344 12.765625 L 19.582031 12.546875 L 19.519531 12.367188 L 19.457031 12.191406 C 19.429688 12.125 18.824219 10.503906 16.34375 10.503906 C 15.535156 10.523438 14.855469 10.804688 14.308594 11.335938 C 14.195312 11.449219 14.09375 11.574219 14 11.710938 L 14 10.5 L 6.5 10.5 L 6.5 13.015625 L 8.984375 13.015625 L 8.984375 19.984375 L 11.480469 19.984375 L 11.480469 19.738281 L 11.484375 19.488281 L 11.507812 13.015625 L 13.535156 13.015625 C 13.527344 13.136719 13.519531 13.257812 13.519531 13.378906 C 13.535156 14.164062 13.851562 14.894531 14.390625 15.375 C 14.753906 15.703125 15.171875 15.933594 15.578125 16.15625 L 15.683594 16.214844 C 15.953125 16.363281 16.234375 16.496094 16.5 16.621094 C 16.714844 16.722656 16.921875 16.820312 17.125 16.925781 C 17.199219 16.96875 17.230469 17.019531 17.226562 17.105469 C 17.222656 17.222656 17.175781 17.289062 17.0625 17.335938 C 16.890625 17.410156 16.71875 17.449219 16.558594 17.449219 C 16.316406 17.449219 16.082031 17.363281 15.859375 17.191406 C 15.742188 17.101562 15.625 16.964844 15.5 16.820312 C 15.429688 16.738281 15.359375 16.652344 15.28125 16.570312 L 15.144531 16.425781 L 15.007812 16.277344 L 14.664062 16.480469 C 14.226562 16.734375 13.242188 17.328125 13.242188 17.328125 L 13.03125 17.453125 L 12.820312 17.582031 L 12.941406 17.792969 L 13.066406 18.007812 C 13.421875 18.617188 13.921875 19.152344 14.402344 19.429688 C 15.066406 19.820312 15.796875 20.015625 16.5625 20.015625 C 16.980469 20.015625 17.421875 19.957031 17.867188 19.84375 C 18.835938 19.59375 19.535156 18.96875 19.839844 18.082031 C 20.160156 17.15625 19.992188 16.0625 19.410156 15.304688 Z M 19.410156 15.304688 "/>
</g>
<mask id="mask1">
  <g filter="url(#alpha)">
<rect x="0" y="0" width="24" height="24" style="fill:rgb(0%,0%,0%);fill-opacity:0.0509804;stroke:none;"/>
  </g>
</mask>
<clipPath id="clip2">
  <rect x="0" y="0" width="24" height="24"/>
</clipPath>
<g id="surface8" clip-path="url(#clip2)">
<path style=" stroke:none;fill-rule:nonzero;fill:rgb(0%,0%,0%);fill-opacity:1;" d="M 16.34375 10.753906 L 16.339844 10.753906 C 15.609375 10.773438 14.984375 11.027344 14.484375 11.515625 C 14.015625 11.972656 13.757812 12.648438 13.769531 13.375 C 13.785156 14.089844 14.070312 14.753906 14.554688 15.191406 C 14.898438 15.496094 15.304688 15.722656 15.699219 15.9375 L 15.804688 15.996094 C 16.070312 16.140625 16.34375 16.273438 16.609375 16.398438 C 16.820312 16.496094 17.03125 16.597656 17.242188 16.707031 C 17.402344 16.789062 17.484375 16.933594 17.476562 17.117188 C 17.46875 17.332031 17.363281 17.484375 17.160156 17.570312 C 16.957031 17.65625 16.753906 17.699219 16.558594 17.699219 C 16.261719 17.699219 15.976562 17.59375 15.710938 17.394531 C 15.570312 17.285156 15.441406 17.140625 15.308594 16.984375 C 15.242188 16.902344 15.171875 16.820312 15.097656 16.742188 L 14.964844 16.59375 L 14.789062 16.695312 C 14.355469 16.949219 13.371094 17.542969 13.371094 17.542969 L 13.160156 17.671875 L 13.285156 17.882812 C 13.621094 18.460938 14.085938 18.957031 14.53125 19.21875 C 15.15625 19.582031 15.839844 19.769531 16.566406 19.769531 C 16.960938 19.769531 17.378906 19.714844 17.804688 19.601562 C 18.6875 19.371094 19.328125 18.804688 19.605469 18.003906 C 19.898438 17.152344 19.742188 16.152344 19.210938 15.457031 C 18.835938 14.964844 18.324219 14.675781 17.824219 14.433594 C 17.667969 14.355469 17.507812 14.28125 17.347656 14.207031 C 17.011719 14.046875 16.664062 13.882812 16.335938 13.707031 C 16.050781 13.554688 15.953125 13.332031 16.058594 13.070312 C 16.125 12.910156 16.3125 12.808594 16.546875 12.808594 C 16.601562 12.808594 16.652344 12.8125 16.707031 12.824219 C 16.945312 12.867188 17.261719 13.15625 17.417969 13.398438 L 17.554688 13.609375 L 17.761719 13.472656 C 17.804688 13.445312 18.773438 12.824219 19.132812 12.5625 L 19.28125 12.453125 L 19.21875 12.277344 C 19.199219 12.214844 18.648438 10.753906 16.34375 10.753906 Z M 16.34375 10.753906 "/>
</g>
<mask id="mask2">
  <g filter="url(#alpha)">
<rect x="0" y="0" width="24" height="24" style="fill:rgb(0%,0%,0%);fill-opacity:0.0509804;stroke:none;"/>
  </g>
</mask>
<clipPath id="clip3">
  <rect x="0" y="0" width="24" height="24"/>
</clipPath>
<g id="surface11" clip-path="url(#clip3)">
<path style=" stroke:none;fill-rule:nonzero;fill:rgb(0%,0%,0%);fill-opacity:1;" d="M 13.75 10.75 L 6.75 10.75 L 6.75 12.765625 L 9.234375 12.765625 L 9.234375 19.734375 L 11.230469 19.734375 L 11.234375 19.488281 L 11.257812 12.765625 L 13.75 12.765625 Z M 13.75 10.75 "/>
</g>
</defs>
<g id="surface1">
<path style=" stroke:none;fill-rule:nonzero;fill:url(#linear0);" d="M 20 3 L 4 3 C 3.449219 3 3 3.449219 3 4 L 3 20 C 3 20.550781 3.449219 21 4 21 L 20 21 C 20.550781 21 21 20.550781 21 20 L 21 4 C 21 3.449219 20.550781 3 20 3 Z M 20 3 "/>
<use xlink:href="#surface5" mask="url(#mask0)"/>
<use xlink:href="#surface8" mask="url(#mask1)"/>
<use xlink:href="#surface11" mask="url(#mask2)"/>
<path style=" stroke:none;fill-rule:nonzero;fill:rgb(100%,100%,100%);fill-opacity:1;" d="M 14.914062 16.910156 C 15.140625 17.15625 15.320312 17.410156 15.558594 17.589844 C 16.074219 17.984375 16.65625 18.050781 17.257812 17.796875 C 17.546875 17.675781 17.71875 17.441406 17.726562 17.121094 C 17.734375 16.84375 17.601562 16.613281 17.355469 16.484375 C 16.886719 16.238281 16.390625 16.035156 15.925781 15.777344 C 15.507812 15.546875 15.074219 15.320312 14.722656 15.003906 C 13.796875 14.167969 13.796875 12.53125 14.65625 11.695312 C 15.125 11.238281 15.691406 11.019531 16.34375 11.003906 C 18.5 11.003906 18.984375 12.359375 18.984375 12.359375 C 18.625 12.617188 17.628906 13.261719 17.628906 13.261719 C 17.449219 12.988281 17.082031 12.640625 16.753906 12.578125 C 16.339844 12.5 15.957031 12.65625 15.824219 12.976562 C 15.675781 13.34375 15.804688 13.710938 16.21875 13.929688 C 16.707031 14.191406 17.214844 14.414062 17.714844 14.65625 C 18.207031 14.894531 18.675781 15.164062 19.011719 15.605469 C 19.863281 16.722656 19.695312 18.851562 17.742188 19.359375 C 16.675781 19.636719 15.632812 19.574219 14.65625 19 C 14.191406 18.730469 13.761719 18.210938 13.5 17.757812 C 13.5 17.757812 14.484375 17.164062 14.914062 16.910156 Z M 14.914062 16.910156 "/>
<path style=" stroke:none;fill-rule:nonzero;fill:rgb(100%,100%,100%);fill-opacity:1;" d="M 7 11 L 7 12.515625 L 9.484375 12.515625 L 9.484375 19.484375 L 10.984375 19.484375 L 11.007812 12.515625 L 13.5 12.515625 L 13.5 11 Z M 7 11 "/>
</g>
</svg>
